<svg id="Layer_1" data-name="Layer 1" xmlns="http://www.w3.org/2000/svg" viewBox="0 0 425.2 209.36"><defs><style>.cls-1{fill:#16254c;}.cls-2{fill:none;}.cls-3{fill:#5bcbf5;}</style></defs><title>vepet_logo</title><path class="cls-1" d="M76.56,169.67a2.86,2.86,0,0,0,2.81-1.82L114,99.55c.84-1.68.14-2.8-1.68-2.8H94.93A3.12,3.12,0,0,0,92,98.56L78.66,129c-2.52,6-5,12.48-7.57,18.65h-.28c-.42-6.31-1.12-13.74-1.68-18.51L65.76,99a2.28,2.28,0,0,0-2.52-2.24H47a2.13,2.13,0,0,0-2.38,2.52l10.8,68.16A2.33,2.33,0,0,0,58,169.67Zm33.8-48L106.71,142c-3.23,18.23,9.54,29.45,27.91,29.45,12.2,0,21.74-3.36,29.31-8.56,1.26-.7,1.4-2,.84-3.37L159,148.77c-.7-1.54-1.82-1.68-3.22-.7-5.61,3.37-12.06,5.61-18.23,5.61-7.72,0-11.08-3.65-9.68-11.08l.42-2h39a2.34,2.34,0,0,0,2.52-2.1l2.38-13.6c3.79-20.62-9-30.15-26.92-30.15-17,0-31.55,8.55-34.92,26.92m40.95,4.91H130.83l.7-3.79c1.26-6.59,5.89-10.23,11.92-10.23,7.15,0,9.54,4.91,8.55,10.52Zm34.08-25.95a3.57,3.57,0,0,0-2,2.52l-15.85,90.46c-.28,1.54.42,2.66,2.1,2.66h16.27a2.37,2.37,0,0,0,2.53-2.25l4.63-25.66a28.28,28.28,0,0,0,13.6,3.09c16.69,0,29.59-11.36,32.4-27.91l2.8-16.13c3.23-18.79-8-32.54-28.19-32.54a73.53,73.53,0,0,0-28.33,5.75m32.82,40.11c-1.54,8.7-5.89,12.9-13,12.9a15.76,15.76,0,0,1-9-2.66l6.31-35.62a20.92,20.92,0,0,1,9.26-2.1c7.57,0,10.66,3.51,9,12.62Zm30.71-19.07L245.27,142c-3.22,18.23,9.54,29.45,27.91,29.45,12.2,0,21.74-3.36,29.31-8.56,1.26-.7,1.4-2,.84-3.37l-5.75-10.8c-.7-1.54-1.82-1.68-3.22-.7-5.61,3.37-12.06,5.61-18.23,5.61-7.71,0-11.08-3.65-9.68-11.08l.42-2h39a2.34,2.34,0,0,0,2.52-2.1l2.38-13.6c3.79-20.62-9-30.15-26.93-30.15-17,0-31.56,8.55-34.92,26.92m40.95,4.91H269.39l.7-3.79c1.26-6.59,5.89-10.23,11.92-10.23,7.15,0,9.54,4.91,8.56,10.52Zm69.37-10.38A2.4,2.4,0,0,0,361.9,114l2.25-12.9a2.09,2.09,0,0,0-2.25-2.67H343.16l-1.11-16.69a2.13,2.13,0,0,0-2.38-2.52h-11.8a2.49,2.49,0,0,0-2.66,2.24l-10.52,60.16c-3.65,20.48,6.31,29.87,21.88,29.87a38.66,38.66,0,0,0,7.15-.7,2.56,2.56,0,0,0,2.38-2.38l2.25-13c.42-1.82-.56-2.52-2.25-2.39h-3.79c-5.75,0-8-3.36-6.87-9.67l4.77-27.07Z"/><path class="cls-1" d="M374.39,61.2A6.56,6.56,0,1,0,381,67.76,6.57,6.57,0,0,0,374.39,61.2Zm0,12.46a5.89,5.89,0,1,1,5.89-5.89A5.9,5.9,0,0,1,374.39,73.66Z"/><path class="cls-1" d="M372.67,71.15v-3h1a2.55,2.55,0,0,1,.5,0,1.34,1.34,0,0,1,.41.18,2.1,2.1,0,0,1,.45.45c.17.22.39.53.65.93l.89,1.41h1.13l-1.18-1.84a4.73,4.73,0,0,0-.74-.9,2.29,2.29,0,0,0-.54-.34,2.35,2.35,0,0,0,1.44-.63,1.69,1.69,0,0,0,.47-1.21,1.93,1.93,0,0,0-.28-1,1.5,1.5,0,0,0-.75-.64,3.94,3.94,0,0,0-1.38-.18h-3v6.78Zm0-6h2.15a1.62,1.62,0,0,1,1.1.31,1,1,0,0,1,.35.79,1.11,1.11,0,0,1-.18.61,1,1,0,0,1-.53.41,2.88,2.88,0,0,1-1,.13h-1.93Z"/><path class="cls-2" d="M263.42,33.86a5.48,5.48,0,0,1,.59-.3A5.46,5.46,0,0,0,263.42,33.86Z"/><path class="cls-2" d="M266.86,44.1l.15,0a5.54,5.54,0,0,1-1,.07A5.72,5.72,0,0,0,266.86,44.1Z"/><path class="cls-2" d="M262.51,34.51a5.53,5.53,0,0,1,.62-.48A5.62,5.62,0,0,0,262.51,34.51Z"/><path class="cls-2" d="M261.74,35.34a5.54,5.54,0,0,1,.56-.64A5.61,5.61,0,0,0,261.74,35.34Z"/><path class="cls-2" d="M264.32,33.44a5.46,5.46,0,0,1,.7-.19A5.31,5.31,0,0,0,264.32,33.44Z"/><path class="cls-2" d="M265.44,33.16l-.14,0a5.54,5.54,0,0,1,1-.07A5.73,5.73,0,0,0,265.44,33.16Z"/><path class="cls-2" d="M266.43,33.13a5.56,5.56,0,0,1,1,.13A5.56,5.56,0,0,0,266.43,33.13Z"/><path class="cls-2" d="M261.21,36.21a5.49,5.49,0,0,1,.37-.63A5.45,5.45,0,0,0,261.21,36.21Z"/><path class="cls-2" d="M268,43.81a5.49,5.49,0,0,1-.73.2A5.28,5.28,0,0,0,268,43.81Z"/><path class="cls-2" d="M262.14,42.41a5.55,5.55,0,0,1-.58-.75A5.55,5.55,0,0,0,262.14,42.41Z"/><path class="cls-2" d="M265.87,44.13a5.54,5.54,0,0,1-1-.13A5.54,5.54,0,0,0,265.87,44.13Z"/><path class="cls-2" d="M261,40.52a5.46,5.46,0,0,1-.26-.93A5.45,5.45,0,0,0,261,40.52Z"/><path class="cls-2" d="M263.79,43.6a5.49,5.49,0,0,1-.8-.46A5.49,5.49,0,0,0,263.79,43.6Z"/><path class="cls-2" d="M268.9,43.39a5.48,5.48,0,0,1-.62.31A5.45,5.45,0,0,0,268.9,43.39Z"/><path class="cls-2" d="M261.46,41.51a5.51,5.51,0,0,1-.42-.82A5.5,5.5,0,0,0,261.46,41.51Z"/><path class="cls-2" d="M260.84,37.2a5.48,5.48,0,0,1,.26-.74A5.28,5.28,0,0,0,260.84,37.2Z"/><path class="cls-2" d="M260.72,39.54a5.56,5.56,0,0,1-.07-1A5.55,5.55,0,0,0,260.72,39.54Z"/><path class="cls-2" d="M260.73,37.59a5.72,5.72,0,0,0-.08.81,5.55,5.55,0,0,1,.13-1C260.77,37.49,260.74,37.54,260.73,37.59Z"/><path class="cls-2" d="M264.87,44a5.46,5.46,0,0,1-.91-.32A5.45,5.45,0,0,0,264.87,44Z"/><path class="cls-2" d="M269.79,42.75a5.53,5.53,0,0,1-.62.48A5.6,5.6,0,0,0,269.79,42.75Z"/><path class="cls-2" d="M267.44,33.27a5.44,5.44,0,0,1,.92.32A5.44,5.44,0,0,0,267.44,33.27Z"/><path class="cls-2" d="M271.59,37.73a5.55,5.55,0,0,1,.07,1A5.56,5.56,0,0,0,271.59,37.73Z"/><path class="cls-2" d="M271.08,41.07a5.47,5.47,0,0,1-.33.57A5.46,5.46,0,0,0,271.08,41.07Z"/><path class="cls-2" d="M270.85,35.74a5.5,5.5,0,0,1,.41.82A5.49,5.49,0,0,0,270.85,35.74Z"/><path class="cls-2" d="M270.17,34.86a5.53,5.53,0,0,1,.58.75A5.52,5.52,0,0,0,270.17,34.86Z"/><path class="cls-2" d="M271.57,39.66a5.73,5.73,0,0,0,.09-.8,5.52,5.52,0,0,1-.12,1S271.56,39.71,271.57,39.66Z"/><path class="cls-2" d="M271.45,40.09a5.46,5.46,0,0,1-.23.68A5.3,5.3,0,0,0,271.45,40.09Z"/><path class="cls-2" d="M271.32,36.74a5.46,5.46,0,0,1,.26.93A5.45,5.45,0,0,0,271.32,36.74Z"/><path class="cls-2" d="M269.45,34.22a5.53,5.53,0,0,1,.71.63A5.53,5.53,0,0,0,269.45,34.22Z"/><path class="cls-2" d="M268.52,33.65a5.48,5.48,0,0,1,.8.46A5.48,5.48,0,0,0,268.52,33.65Z"/><path class="cls-2" d="M262.85,43a5.55,5.55,0,0,1-.72-.63A5.55,5.55,0,0,0,262.85,43Z"/><path class="cls-2" d="M270.56,41.93a5.53,5.53,0,0,1-.51.58A5.61,5.61,0,0,0,270.56,41.93Z"/><path class="cls-2" d="M271.59,37.73v-.06a5.46,5.46,0,0,0-.26-.93l-.06-.17a5.5,5.5,0,0,0-.41-.82l-.09-.14a5.53,5.53,0,0,0-.58-.75h0a5.53,5.53,0,0,0-.71-.63l-.14-.1a5.48,5.48,0,0,0-.8-.46l-.16-.07a5.44,5.44,0,0,0-.92-.32h0a5.56,5.56,0,0,0-1-.13h-.17a5.54,5.54,0,0,0-1,.07l-.28.06a5.46,5.46,0,0,0-.7.19l-.3.12a5.48,5.48,0,0,0-.59.3l-.3.17a5.53,5.53,0,0,0-.62.48l-.21.2a5.54,5.54,0,0,0-.56.64c-.06.08-.11.16-.16.24a5.49,5.49,0,0,0-.37.63l-.11.25a5.48,5.48,0,0,0-.26.74c0,.08,0,.15-.06.23a5.55,5.55,0,0,0-.13,1c0,.06,0,.11,0,.17a5.56,5.56,0,0,0,.07,1v.05a5.46,5.46,0,0,0,.26.93l.06.17a5.51,5.51,0,0,0,.42.82l.09.14a5.55,5.55,0,0,0,.58.75h0a5.55,5.55,0,0,0,.72.63l.14.1a5.49,5.49,0,0,0,.8.46l.16.07a5.46,5.46,0,0,0,.91.32h.05a5.54,5.54,0,0,0,1,.13H266a5.54,5.54,0,0,0,1-.07l.25-.05a5.49,5.49,0,0,0,.73-.2l.28-.11a5.48,5.48,0,0,0,.62-.31l.28-.16a5.53,5.53,0,0,0,.62-.48l.26-.25a5.53,5.53,0,0,0,.51-.58c.07-.09.13-.19.19-.29a5.47,5.47,0,0,0,.33-.57l.14-.3a5.46,5.46,0,0,0,.23-.68c0-.09.06-.19.08-.28a5.52,5.52,0,0,0,.12-1c0-.06,0-.11,0-.17A5.55,5.55,0,0,0,271.59,37.73Z"/><path class="cls-3" d="M326.66,50.62a3.59,3.59,0,0,0-2.42-2.91L280.95,33.2A27.08,27.08,0,0,0,269,19.66c-6.7-3.83-15.43-5.55-26-5l-87.1,3.37a3.6,3.6,0,0,0-3.41,3.46,23.18,23.18,0,0,0,2.33,12.17,5.78,5.78,0,0,0,2.41,2.95c2.78,1.77,18.52,2.12,48.36-.2a.4.4,0,0,1,.13.78L158.56,47.3a3.6,3.6,0,0,0-1.85,4.59A27.15,27.15,0,0,0,164,61.56c2.68,2.29,6.69,3.85,13.08,4.88a16.73,16.73,0,0,0,5,0l29.49-6.28a1.67,1.67,0,0,1,1.71.67c.51.73.68,1.63-.84,2.15l-21.18,5.61A2.25,2.25,0,0,0,190,72.17a3.33,3.33,0,0,0,1.12.87c2.93,1.41,6.68,2.1,10.07,3.24a62.15,62.15,0,0,0,17.08,3.25c6.86.23,10.63.65,19.19-1.28a12.89,12.89,0,0,0,3.68-1.46c1.73-1,4.05-2.37,5.23-2.56,6.22-1,13.69,1,20.2,2.88,9.33,2.75,17.92,3.52,25.53,2.3,14.16-2.27,19.5-13.07,21.89-16.71C326.56,61.1,327.13,54,326.66,50.62Zm-55.09-11s0,.1,0,.15-.05.19-.08.28a5.3,5.3,0,0,1-.23.68l-.14.3a5.46,5.46,0,0,1-.33.57c-.06.1-.12.2-.19.29a5.61,5.61,0,0,1-.51.58l-.26.25a5.6,5.6,0,0,1-.62.48l-.28.16a5.45,5.45,0,0,1-.62.31l-.28.11a5.28,5.28,0,0,1-.73.2l-.25.05-.15,0a5.72,5.72,0,0,1-.81,0h-.17a5.54,5.54,0,0,1-1-.13h-.05a5.45,5.45,0,0,1-.91-.32l-.16-.07a5.49,5.49,0,0,1-.8-.46l-.14-.1a5.55,5.55,0,0,1-.72-.63h0a5.56,5.56,0,0,1-.58-.75l-.09-.14a5.5,5.5,0,0,1-.42-.82l-.06-.17a5.45,5.45,0,0,1-.26-.93v-.05a5.55,5.55,0,0,1-.07-1s0-.07,0-.11,0,0,0-.06a5.72,5.72,0,0,1,.08-.81c0-.05,0-.1,0-.16s0-.15.06-.23a5.28,5.28,0,0,1,.26-.74l.11-.25a5.45,5.45,0,0,1,.37-.63l.16-.24a5.61,5.61,0,0,1,.56-.64l.21-.2a5.62,5.62,0,0,1,.62-.48l.3-.17a5.46,5.46,0,0,1,.59-.3l.3-.12a5.31,5.31,0,0,1,.7-.19l.28-.06.14,0a5.73,5.73,0,0,1,.82,0h.17a5.56,5.56,0,0,1,1,.13h0a5.44,5.44,0,0,1,.92.32l.16.07a5.48,5.48,0,0,1,.8.46l.14.1a5.53,5.53,0,0,1,.71.63h0a5.52,5.52,0,0,1,.58.75l.09.14a5.49,5.49,0,0,1,.41.82l.06.17a5.45,5.45,0,0,1,.26.93v.06a5.56,5.56,0,0,1,.07,1s0,.07,0,.11,0,0,0,.06A5.73,5.73,0,0,1,271.57,39.66Z"/><path class="cls-3" d="M269.17,43.23l-.28.16Z"/><path class="cls-3" d="M268.28,43.71l-.28.11Z"/><path class="cls-3" d="M263,43.14l-.14-.1Z"/><path class="cls-3" d="M271.53,39.81c0,.1-.05.19-.08.28C271.48,40,271.51,39.91,271.53,39.81Z"/><path class="cls-3" d="M271.22,40.77l-.14.3Z"/><path class="cls-3" d="M264.92,44h0Z"/><path class="cls-3" d="M267.27,44l-.25.05Z"/><path class="cls-3" d="M270.75,41.64c-.06.1-.12.2-.19.29C270.63,41.84,270.69,41.74,270.75,41.64Z"/><path class="cls-3" d="M266,44.14h0Z"/><path class="cls-3" d="M264,43.68l-.16-.07Z"/><path class="cls-3" d="M262.14,42.41h0Z"/><path class="cls-3" d="M270.17,34.85h0Z"/><path class="cls-3" d="M270.75,35.6l.09.14Z"/><path class="cls-3" d="M269.31,34.12l.14.1Z"/><path class="cls-3" d="M268.35,33.58l.16.07Z"/><path class="cls-3" d="M271.26,36.57l.06.17Z"/><path class="cls-3" d="M261.55,41.65l-.09-.14Z"/><path class="cls-3" d="M271.58,37.67v0Z"/><path class="cls-3" d="M267.4,33.26h0Z"/><path class="cls-3" d="M271.66,38.69c0,.06,0,.11,0,.17s0,0,0-.06S271.65,38.73,271.66,38.69Z"/><path class="cls-3" d="M262.51,34.51l-.21.2Z"/><path class="cls-3" d="M269.79,42.75l.26-.25Z"/><path class="cls-3" d="M266.32,33.12h0Z"/><path class="cls-3" d="M261.1,36.46l.11-.25Z"/><path class="cls-3" d="M260.64,38.46s0,.07,0,.11,0-.11,0-.17S260.64,38.44,260.64,38.46Z"/><path class="cls-3" d="M260.72,39.59v0Z"/><path class="cls-3" d="M261,40.69l-.06-.17Z"/><path class="cls-3" d="M260.78,37.43c0-.08,0-.15.06-.23C260.82,37.28,260.79,37.36,260.78,37.43Z"/><path class="cls-3" d="M265,33.25l.28-.06Z"/><path class="cls-3" d="M261.57,35.59c.05-.08.1-.17.16-.24Z"/><path class="cls-3" d="M264,33.56l.3-.12Z"/><path class="cls-3" d="M263.13,34l.3-.17Z"/></svg>